;TYPE=PLATED
;Layer: PTH_Through
;EasyEDA Pro Client v2.0.19.1.e63e9f, 2023-06-23 12:42:27
;Gerber Generator version 0.3
M48
METRIC,LZ,000.000
;Hole size 1 = 0.305 METRIC
T01C0.305
;Hole size 2 = 0.610 METRIC
T02C0.610
;Hole size 3 = 0.711 METRIC
T03C0.711
;Hole size 4 = 1.100 METRIC
T04C1.100
;Hole size 5 = 1.200 METRIC
T05C1.200
%
G05
G90
T01
X029464Y040259
X029464Y036001
T02
X027686Y029903
X027813Y031115
X013081Y037846
X013081Y035433
X030480Y024384
X047117Y023876
X051943Y030353
X039116Y029591
T03
X022479Y027178
X025908Y027178
T04
X059817Y012573
X059817Y015113
X059817Y017653
X059817Y020193
X059817Y022733
X059817Y025273
X059817Y027813
X059817Y030353
X059817Y032893
X059817Y035433
X059817Y037973
X059817Y040513
X059817Y043053
X059817Y045593
X059817Y048133
X088773Y048133
X088773Y045593
X088773Y043053
X088773Y040513
X088773Y037973
X088773Y035433
X088773Y032893
X088773Y030353
X088773Y027813
X088773Y025273
X088773Y022733
X088773Y020193
X088773Y017653
X088773Y015113
X088773Y012573
X029464Y027178
X032004Y027178
X034544Y027178
X037084Y027178
X039624Y027178
X042164Y027178
X044704Y027178
X047244Y027178
X047244Y040259
X044704Y040259
X042164Y040259
X039624Y040259
X037084Y040259
X034544Y040259
X032004Y040259
X029464Y040259
X026797Y015240
X029337Y015240
X031877Y015240
X026797Y012227
X029337Y012227
X031877Y012227
X080772Y064008
X078232Y064008
X075692Y064008
X073152Y064008
X066294Y064008
X041977Y052959
X039477Y052959
X036977Y052959
X034477Y052959
T05
X009779Y054824
X009779Y049824
X042585Y017145
X047585Y017145
M30