G04 Layer: TopSolderMaskLayer*
G04 EasyEDA Pro v2.0.19.1.e63e9f, 2023-06-23 12:42:27*
G04 Gerber Generator version 0.3*
G04 Scale: 100 percent, Rotated: No, Reflected: No*
G04 Dimensions in millimeters*
G04 Leading zeros omitted, absolute positions, 3 integers and 3 decimals*
%FSLAX33Y33*%
%MOMM*%
%AMRoundRect*1,1,$1,$2,$3*1,1,$1,$4,$5*1,1,$1,0-$2,0-$3*1,1,$1,0-$4,0-$5*20,1,$1,$2,$3,$4,$5,0*20,1,$1,$4,$5,0-$2,0-$3,0*20,1,$1,0-$2,0-$3,0-$4,0-$5,0*20,1,$1,0-$4,0-$5,$2,$3,0*4,1,4,$2,$3,$4,$5,0-$2,0-$3,0-$4,0-$5,$2,$3,0*%
%ADD10C,1.802*%
%ADD11RoundRect,0.102X0.787X0.85X0.787X-0.85*%
%ADD12RoundRect,0.102X-0.787X-0.85X-0.787X0.85*%
%ADD13RoundRect,0.102X0.787X-0.85X-0.787X-0.85*%
%ADD14RoundRect,0.102X-0.787X0.85X0.787X0.85*%
%ADD15RoundRect,0.102X0.689X0.566X0.689X-0.566*%
%ADD16RoundRect,0.102X-0.566X0.689X0.566X0.689*%
%ADD17O,2.757X0.662*%
%ADD18C,1.8*%
%ADD19RoundRect,0.102X-0.85X0.85X0.85X0.85*%
%ADD20RoundRect,0.102X0.625X0.5X0.625X-0.5*%
%ADD21RoundRect,0.102X-1.75X0.6X1.75X0.6*%
%ADD22RoundRect,0.102X0.85X-0.85X-0.85X-0.85*%
%ADD23C,1.902*%
G75*


G04 Pad Start*
G54D10*
G01X59817Y12573D03*
G01X59817Y15113D03*
G01X59817Y17653D03*
G01X59817Y20193D03*
G01X59817Y22733D03*
G01X59817Y25273D03*
G01X59817Y27813D03*
G01X59817Y30353D03*
G01X59817Y32893D03*
G01X59817Y35433D03*
G01X59817Y37973D03*
G01X59817Y40513D03*
G01X59817Y43053D03*
G01X59817Y45593D03*
G54D11*
G01X59817Y48133D03*
G54D10*
G01X88773Y48133D03*
G01X88773Y45593D03*
G01X88773Y43053D03*
G01X88773Y40513D03*
G01X88773Y37973D03*
G01X88773Y35433D03*
G01X88773Y32893D03*
G01X88773Y30353D03*
G01X88773Y27813D03*
G01X88773Y25273D03*
G01X88773Y22733D03*
G01X88773Y20193D03*
G01X88773Y17653D03*
G01X88773Y15113D03*
G54D12*
G01X88773Y12573D03*
G54D10*
G01X29464Y27178D03*
G01X32004Y27178D03*
G01X34544Y27178D03*
G01X37084Y27178D03*
G01X39624Y27178D03*
G01X42164Y27178D03*
G01X44704Y27178D03*
G54D13*
G01X47244Y27178D03*
G54D10*
G01X47244Y40259D03*
G01X44704Y40259D03*
G01X42164Y40259D03*
G01X39624Y40259D03*
G01X37084Y40259D03*
G01X34544Y40259D03*
G01X32004Y40259D03*
G54D14*
G01X29464Y40259D03*
G54D15*
G01X2954Y38243D03*
G01X2954Y40243D03*
G54D16*
G01X11287Y40640D03*
G01X9287Y40640D03*
G54D17*
G01X16771Y37846D03*
G01X16771Y36576D03*
G01X16771Y35306D03*
G01X24377Y37846D03*
G01X24377Y36576D03*
G01X24377Y35306D03*
G54D18*
G01X9779Y54824D03*
G01X9779Y49824D03*
G54D19*
G01X26797Y15240D03*
G54D10*
G01X29337Y15240D03*
G01X31877Y15240D03*
G54D19*
G01X26797Y12227D03*
G54D10*
G01X29337Y12227D03*
G01X31877Y12227D03*
G54D20*
G01X3048Y34247D03*
G01X3048Y32047D03*
G54D21*
G01X40637Y34163D03*
G01X45977Y34163D03*
G54D16*
G01X11287Y36576D03*
G01X9287Y36576D03*
G01X11287Y31496D03*
G01X9287Y31496D03*
G01X32115Y20320D03*
G01X30115Y20320D03*
G54D18*
G01X42585Y17145D03*
G01X47585Y17145D03*
G54D22*
G01X80772Y64008D03*
G54D10*
G01X78232Y64008D03*
G01X75692Y64008D03*
G01X73152Y64008D03*
G54D19*
G01X66294Y64008D03*
G54D23*
G01X41977Y52959D03*
G01X39477Y52959D03*
G01X36977Y52959D03*
G01X34477Y52959D03*
G04 Pad End*

M02*
