G04 Layer: TopPasteMaskLayer*
G04 EasyEDA Pro v2.0.19.1.e63e9f, 2023-06-23 12:42:27*
G04 Gerber Generator version 0.3*
G04 Scale: 100 percent, Rotated: No, Reflected: No*
G04 Dimensions in millimeters*
G04 Leading zeros omitted, absolute positions, 3 integers and 3 decimals*
%FSLAX33Y33*%
%MOMM*%
%ADD10O,2.655X0.56*%
%ADD11R,1.25X1.0*%
%ADD12R,3.5X1.2*%
G75*


G04 PolygonModel Start*
G36*
G01X2314Y40943D02*
G01X3594Y40943D01*
G01X3644Y40893D01*
G01Y39743D01*
G01X3594Y39693D01*
G01X3184Y39688D01*
G01Y40138D01*
G01X2734D01*
G01Y39698D01*
G01X2314Y39693D01*
G01X2264Y39743D01*
G01Y40893D01*
G01X2314Y40943D01*
G37*
G36*
G01X2314Y38793D02*
G01X2734Y38793D01*
G01Y38348D01*
G01X3184D01*
G01Y38788D01*
G01X3594Y38793D01*
G01X3644Y38743D01*
G01Y37593D01*
G01X3594Y37543D01*
G01X2314D01*
G01X2264Y37593D01*
G01Y38743D01*
G01X2314Y38793D01*
G37*
G36*
G01X8587Y40000D02*
G01X8587Y41280D01*
G01X8637Y41330D01*
G01X9787D01*
G01X9837Y41280D01*
G01X9842Y40870D01*
G01X9392D01*
G01Y40420D01*
G01X9832D01*
G01X9837Y40000D01*
G01X9787Y39950D01*
G01X8637D01*
G01X8587Y40000D01*
G37*
G36*
G01X10737Y40000D02*
G01X10737Y40420D01*
G01X11182D01*
G01Y40870D01*
G01X10742D01*
G01X10737Y41280D01*
G01X10787Y41330D01*
G01X11937D01*
G01X11987Y41280D01*
G01Y40000D01*
G01X11937Y39950D01*
G01X10787D01*
G01X10737Y40000D01*
G37*
G36*
G01X8587Y35936D02*
G01X8587Y37216D01*
G01X8637Y37266D01*
G01X9787D01*
G01X9837Y37216D01*
G01X9842Y36806D01*
G01X9392D01*
G01Y36356D01*
G01X9832D01*
G01X9837Y35936D01*
G01X9787Y35886D01*
G01X8637D01*
G01X8587Y35936D01*
G37*
G36*
G01X10737Y35936D02*
G01X10737Y36356D01*
G01X11182D01*
G01Y36806D01*
G01X10742D01*
G01X10737Y37216D01*
G01X10787Y37266D01*
G01X11937D01*
G01X11987Y37216D01*
G01Y35936D01*
G01X11937Y35886D01*
G01X10787D01*
G01X10737Y35936D01*
G37*
G36*
G01X8587Y30856D02*
G01X8587Y32136D01*
G01X8637Y32186D01*
G01X9787D01*
G01X9837Y32136D01*
G01X9842Y31726D01*
G01X9392D01*
G01Y31276D01*
G01X9832D01*
G01X9837Y30856D01*
G01X9787Y30806D01*
G01X8637D01*
G01X8587Y30856D01*
G37*
G36*
G01X10737Y30856D02*
G01X10737Y31276D01*
G01X11182D01*
G01Y31726D01*
G01X10742D01*
G01X10737Y32136D01*
G01X10787Y32186D01*
G01X11937D01*
G01X11987Y32136D01*
G01Y30856D01*
G01X11937Y30806D01*
G01X10787D01*
G01X10737Y30856D01*
G37*
G36*
G01X29415Y19680D02*
G01X29415Y20960D01*
G01X29465Y21010D01*
G01X30615D01*
G01X30665Y20960D01*
G01X30670Y20550D01*
G01X30220D01*
G01Y20100D01*
G01X30660D01*
G01X30665Y19680D01*
G01X30615Y19630D01*
G01X29465D01*
G01X29415Y19680D01*
G37*
G36*
G01X31565Y19680D02*
G01X31565Y20100D01*
G01X32010D01*
G01Y20550D01*
G01X31570D01*
G01X31565Y20960D01*
G01X31615Y21010D01*
G01X32765D01*
G01X32815Y20960D01*
G01Y19680D01*
G01X32765Y19630D01*
G01X31615D01*
G01X31565Y19680D01*
G37*
G04 PolygonModel End*

G04 Pad Start*
G54D10*
G01X16771Y37846D03*
G01X16771Y36576D03*
G01X16771Y35306D03*
G01X24377Y37846D03*
G01X24377Y36576D03*
G01X24377Y35306D03*
G54D11*
G01X3048Y34247D03*
G01X3048Y32047D03*
G54D12*
G01X40637Y34163D03*
G01X45977Y34163D03*
G04 Pad End*

M02*
